<mxfile host="app.diagrams.net" agent="Mozilla/5.0 (Windows NT 10.0; Win64; x64) AppleWebKit/537.36 (KHTML, like Gecko) Chrome/137.0.0.0 Safari/537.36 Edg/137.0.0.0" version="27.1.1">
  <diagram name="Page-1" id="LDK3BKoTHcgWF6v89rxy">
    <mxGraphModel dx="1891" dy="639" grid="1" gridSize="10" guides="1" tooltips="1" connect="1" arrows="1" fold="1" page="1" pageScale="1" pageWidth="827" pageHeight="1169" math="0" shadow="0">
      <root>
        <mxCell id="0" />
        <mxCell id="1" parent="0" />
        <mxCell id="8G37RJXWzMMszH3C8Ynp-1" value="&lt;font style=&quot;font-size: 18px;&quot;&gt;Gym And Fitness&lt;/font&gt;&amp;nbsp;&lt;div&gt;&lt;font style=&quot;font-size: 14px;&quot;&gt;(C# Desktop App)&lt;/font&gt;&lt;/div&gt;" style="rounded=0;whiteSpace=wrap;html=1;" vertex="1" parent="1">
          <mxGeometry x="502" y="50" width="150" height="60" as="geometry" />
        </mxCell>
        <mxCell id="8G37RJXWzMMszH3C8Ynp-2" value="1. Requirements Analysis" style="rounded=0;whiteSpace=wrap;html=1;" vertex="1" parent="1">
          <mxGeometry x="-201" y="200" width="120" height="60" as="geometry" />
        </mxCell>
        <mxCell id="8G37RJXWzMMszH3C8Ynp-3" value="2. System Design" style="rounded=0;whiteSpace=wrap;html=1;" vertex="1" parent="1">
          <mxGeometry y="200" width="120" height="60" as="geometry" />
        </mxCell>
        <mxCell id="8G37RJXWzMMszH3C8Ynp-4" value="4. User Interface (UI) Design" style="rounded=0;whiteSpace=wrap;html=1;" vertex="1" parent="1">
          <mxGeometry x="400" y="200" width="120" height="60" as="geometry" />
        </mxCell>
        <mxCell id="8G37RJXWzMMszH3C8Ynp-5" value="5. Development" style="rounded=0;whiteSpace=wrap;html=1;" vertex="1" parent="1">
          <mxGeometry x="600" y="197" width="120" height="60" as="geometry" />
        </mxCell>
        <mxCell id="8G37RJXWzMMszH3C8Ynp-6" value="3. Database Development" style="rounded=0;whiteSpace=wrap;html=1;" vertex="1" parent="1">
          <mxGeometry x="199" y="200" width="120" height="60" as="geometry" />
        </mxCell>
        <mxCell id="8G37RJXWzMMszH3C8Ynp-7" value="7. Deployment" style="rounded=0;whiteSpace=wrap;html=1;" vertex="1" parent="1">
          <mxGeometry x="998" y="196" width="120" height="60" as="geometry" />
        </mxCell>
        <mxCell id="8G37RJXWzMMszH3C8Ynp-8" value="8. Documentation&lt;span style=&quot;background-color: transparent; color: light-dark(rgb(0, 0, 0), rgb(255, 255, 255));&quot;&gt;&amp;nbsp;&amp;amp;&lt;/span&gt;&lt;div&gt;&amp;nbsp;Maintenance&lt;/div&gt;" style="rounded=0;whiteSpace=wrap;html=1;" vertex="1" parent="1">
          <mxGeometry x="1201" y="196" width="120" height="60" as="geometry" />
        </mxCell>
        <mxCell id="8G37RJXWzMMszH3C8Ynp-9" value="6. Testing&amp;nbsp;&lt;div&gt;&amp;amp;&lt;/div&gt;&lt;div&gt;&amp;nbsp;Validation&lt;/div&gt;" style="rounded=0;whiteSpace=wrap;html=1;" vertex="1" parent="1">
          <mxGeometry x="799" y="195" width="120" height="60" as="geometry" />
        </mxCell>
        <mxCell id="8G37RJXWzMMszH3C8Ynp-10" value="" style="endArrow=none;html=1;rounded=0;" edge="1" parent="1">
          <mxGeometry width="50" height="50" relative="1" as="geometry">
            <mxPoint x="-138" y="158" as="sourcePoint" />
            <mxPoint x="1260" y="158" as="targetPoint" />
          </mxGeometry>
        </mxCell>
        <mxCell id="8G37RJXWzMMszH3C8Ynp-12" value="" style="endArrow=none;html=1;rounded=0;entryX=0.5;entryY=1;entryDx=0;entryDy=0;" edge="1" parent="1">
          <mxGeometry width="50" height="50" relative="1" as="geometry">
            <mxPoint x="575" y="159" as="sourcePoint" />
            <mxPoint x="575" y="109" as="targetPoint" />
          </mxGeometry>
        </mxCell>
        <mxCell id="8G37RJXWzMMszH3C8Ynp-13" value="" style="endArrow=none;html=1;rounded=0;entryX=0.5;entryY=1;entryDx=0;entryDy=0;" edge="1" parent="1">
          <mxGeometry width="50" height="50" relative="1" as="geometry">
            <mxPoint x="-139" y="197" as="sourcePoint" />
            <mxPoint x="-139" y="157" as="targetPoint" />
          </mxGeometry>
        </mxCell>
        <mxCell id="8G37RJXWzMMszH3C8Ynp-14" value="" style="endArrow=none;html=1;rounded=0;entryX=0.5;entryY=1;entryDx=0;entryDy=0;" edge="1" parent="1">
          <mxGeometry width="50" height="50" relative="1" as="geometry">
            <mxPoint x="63" y="198" as="sourcePoint" />
            <mxPoint x="63" y="158" as="targetPoint" />
          </mxGeometry>
        </mxCell>
        <mxCell id="8G37RJXWzMMszH3C8Ynp-15" value="" style="endArrow=none;html=1;rounded=0;entryX=0.5;entryY=1;entryDx=0;entryDy=0;" edge="1" parent="1">
          <mxGeometry width="50" height="50" relative="1" as="geometry">
            <mxPoint x="254" y="200" as="sourcePoint" />
            <mxPoint x="254" y="160" as="targetPoint" />
          </mxGeometry>
        </mxCell>
        <mxCell id="8G37RJXWzMMszH3C8Ynp-16" value="" style="endArrow=none;html=1;rounded=0;entryX=0.5;entryY=1;entryDx=0;entryDy=0;" edge="1" parent="1">
          <mxGeometry width="50" height="50" relative="1" as="geometry">
            <mxPoint x="457" y="197" as="sourcePoint" />
            <mxPoint x="457" y="157" as="targetPoint" />
          </mxGeometry>
        </mxCell>
        <mxCell id="8G37RJXWzMMszH3C8Ynp-17" value="" style="endArrow=none;html=1;rounded=0;entryX=0.5;entryY=1;entryDx=0;entryDy=0;" edge="1" parent="1">
          <mxGeometry width="50" height="50" relative="1" as="geometry">
            <mxPoint x="1057.17" y="195" as="sourcePoint" />
            <mxPoint x="1057.17" y="155" as="targetPoint" />
          </mxGeometry>
        </mxCell>
        <mxCell id="8G37RJXWzMMszH3C8Ynp-18" value="" style="endArrow=none;html=1;rounded=0;entryX=0.5;entryY=1;entryDx=0;entryDy=0;" edge="1" parent="1">
          <mxGeometry width="50" height="50" relative="1" as="geometry">
            <mxPoint x="663" y="197" as="sourcePoint" />
            <mxPoint x="663" y="157" as="targetPoint" />
          </mxGeometry>
        </mxCell>
        <mxCell id="8G37RJXWzMMszH3C8Ynp-19" value="" style="endArrow=none;html=1;rounded=0;entryX=0.5;entryY=1;entryDx=0;entryDy=0;" edge="1" parent="1">
          <mxGeometry width="50" height="50" relative="1" as="geometry">
            <mxPoint x="857" y="197" as="sourcePoint" />
            <mxPoint x="857" y="157" as="targetPoint" />
          </mxGeometry>
        </mxCell>
        <mxCell id="8G37RJXWzMMszH3C8Ynp-20" value="&lt;div style=&quot;&quot;&gt;1.1 Stakeholder Meetings&lt;/div&gt;" style="rounded=0;whiteSpace=wrap;html=1;align=center;" vertex="1" parent="1">
          <mxGeometry x="-138" y="320" width="120" height="60" as="geometry" />
        </mxCell>
        <mxCell id="8G37RJXWzMMszH3C8Ynp-21" value="" style="endArrow=none;html=1;rounded=0;entryX=0.5;entryY=1;entryDx=0;entryDy=0;" edge="1" parent="1">
          <mxGeometry width="50" height="50" relative="1" as="geometry">
            <mxPoint x="1259" y="197" as="sourcePoint" />
            <mxPoint x="1259" y="157" as="targetPoint" />
          </mxGeometry>
        </mxCell>
        <mxCell id="8G37RJXWzMMszH3C8Ynp-22" value="1.2 Gather&lt;div&gt;&amp;nbsp;functional requirements&lt;/div&gt;" style="rounded=0;whiteSpace=wrap;html=1;" vertex="1" parent="1">
          <mxGeometry x="-138" y="420" width="120" height="60" as="geometry" />
        </mxCell>
        <mxCell id="8G37RJXWzMMszH3C8Ynp-23" value="1.3 Gather&amp;nbsp;&lt;div&gt;non-functional requirements&lt;/div&gt;" style="rounded=0;whiteSpace=wrap;html=1;" vertex="1" parent="1">
          <mxGeometry x="-138" y="525" width="120" height="60" as="geometry" />
        </mxCell>
        <mxCell id="8G37RJXWzMMszH3C8Ynp-24" value="1.4 Define project scope" style="rounded=0;whiteSpace=wrap;html=1;" vertex="1" parent="1">
          <mxGeometry x="-138" y="630" width="120" height="60" as="geometry" />
        </mxCell>
        <mxCell id="8G37RJXWzMMszH3C8Ynp-25" value="2.1 UI/UX WireFraming (Figma)" style="rounded=0;whiteSpace=wrap;html=1;" vertex="1" parent="1">
          <mxGeometry x="70" y="320" width="120" height="60" as="geometry" />
        </mxCell>
        <mxCell id="8G37RJXWzMMszH3C8Ynp-26" value="2.2 Database Schema Design&lt;div&gt;&amp;nbsp;(SQL Server)&lt;/div&gt;" style="rounded=0;whiteSpace=wrap;html=1;" vertex="1" parent="1">
          <mxGeometry x="70" y="420" width="120" height="60" as="geometry" />
        </mxCell>
        <mxCell id="8G37RJXWzMMszH3C8Ynp-27" value="2.3&amp;nbsp;Create UML diagrams" style="rounded=0;whiteSpace=wrap;html=1;" vertex="1" parent="1">
          <mxGeometry x="70" y="525" width="120" height="60" as="geometry" />
        </mxCell>
        <mxCell id="8G37RJXWzMMszH3C8Ynp-28" value="2.4 Prepare Work Breakdown Structure (WBS)" style="rounded=0;whiteSpace=wrap;html=1;" vertex="1" parent="1">
          <mxGeometry x="70" y="899" width="120" height="60" as="geometry" />
        </mxCell>
        <mxCell id="8G37RJXWzMMszH3C8Ynp-31" value="3.1 Create database and tables" style="rounded=0;whiteSpace=wrap;html=1;" vertex="1" parent="1">
          <mxGeometry x="270" y="320" width="120" height="60" as="geometry" />
        </mxCell>
        <mxCell id="8G37RJXWzMMszH3C8Ynp-32" value="3.2 Define relationships and constraints" style="rounded=0;whiteSpace=wrap;html=1;" vertex="1" parent="1">
          <mxGeometry x="270" y="420" width="120" height="60" as="geometry" />
        </mxCell>
        <mxCell id="8G37RJXWzMMszH3C8Ynp-33" value="3.3 Create stored procedures/SQL queries" style="rounded=0;whiteSpace=wrap;html=1;" vertex="1" parent="1">
          <mxGeometry x="270" y="525" width="120" height="60" as="geometry" />
        </mxCell>
        <mxCell id="8G37RJXWzMMszH3C8Ynp-35" value="4.1 BaseForm" style="rounded=0;whiteSpace=wrap;html=1;" vertex="1" parent="1">
          <mxGeometry x="460" y="320" width="120" height="60" as="geometry" />
        </mxCell>
        <mxCell id="8G37RJXWzMMszH3C8Ynp-36" value="4.2 MainForm" style="rounded=0;whiteSpace=wrap;html=1;" vertex="1" parent="1">
          <mxGeometry x="460" y="420" width="120" height="60" as="geometry" />
        </mxCell>
        <mxCell id="8G37RJXWzMMszH3C8Ynp-37" value="4.3 LoginForm" style="rounded=0;whiteSpace=wrap;html=1;" vertex="1" parent="1">
          <mxGeometry x="460" y="525" width="120" height="60" as="geometry" />
        </mxCell>
        <mxCell id="8G37RJXWzMMszH3C8Ynp-38" value="4.4 SignupForm" style="rounded=0;whiteSpace=wrap;html=1;" vertex="1" parent="1">
          <mxGeometry x="460" y="630" width="120" height="60" as="geometry" />
        </mxCell>
        <mxCell id="8G37RJXWzMMszH3C8Ynp-39" value="5.1 Implement Login &amp;amp; Authentication Logic" style="rounded=0;whiteSpace=wrap;html=1;" vertex="1" parent="1">
          <mxGeometry x="660" y="320" width="120" height="60" as="geometry" />
        </mxCell>
        <mxCell id="8G37RJXWzMMszH3C8Ynp-40" value="5.2 Implementing C# Business Logic" style="rounded=0;whiteSpace=wrap;html=1;" vertex="1" parent="1">
          <mxGeometry x="660" y="420" width="120" height="60" as="geometry" />
        </mxCell>
        <mxCell id="8G37RJXWzMMszH3C8Ynp-41" value="5.3 Database Integration&amp;nbsp;&lt;div&gt;(SQL Server)&lt;/div&gt;" style="rounded=0;whiteSpace=wrap;html=1;" vertex="1" parent="1">
          <mxGeometry x="660" y="900" width="120" height="60" as="geometry" />
        </mxCell>
        <mxCell id="8G37RJXWzMMszH3C8Ynp-42" value="5.3.1&amp;nbsp;&lt;div&gt;CRUD Operations&lt;/div&gt;" style="rounded=0;whiteSpace=wrap;html=1;" vertex="1" parent="1">
          <mxGeometry x="707" y="992" width="120" height="60" as="geometry" />
        </mxCell>
        <mxCell id="8G37RJXWzMMszH3C8Ynp-43" value="6.1 Unit Testing" style="rounded=0;whiteSpace=wrap;html=1;" vertex="1" parent="1">
          <mxGeometry x="880" y="320" width="120" height="60" as="geometry" />
        </mxCell>
        <mxCell id="8G37RJXWzMMszH3C8Ynp-44" value="6.2 Integration&lt;div&gt;&amp;nbsp;Testing&lt;/div&gt;" style="rounded=0;whiteSpace=wrap;html=1;" vertex="1" parent="1">
          <mxGeometry x="880" y="420" width="120" height="60" as="geometry" />
        </mxCell>
        <mxCell id="8G37RJXWzMMszH3C8Ynp-45" value="6.3 Perform User Acceptance Testing (UAT)" style="rounded=0;whiteSpace=wrap;html=1;" vertex="1" parent="1">
          <mxGeometry x="880" y="525" width="120" height="60" as="geometry" />
        </mxCell>
        <mxCell id="8G37RJXWzMMszH3C8Ynp-47" value="7.1 Package application using ClickOnce" style="rounded=0;whiteSpace=wrap;html=1;" vertex="1" parent="1">
          <mxGeometry x="1078" y="321" width="120" height="60" as="geometry" />
        </mxCell>
        <mxCell id="8G37RJXWzMMszH3C8Ynp-48" value="7.2 Install and test on client machine" style="rounded=0;whiteSpace=wrap;html=1;" vertex="1" parent="1">
          <mxGeometry x="1078" y="421" width="120" height="60" as="geometry" />
        </mxCell>
        <mxCell id="8G37RJXWzMMszH3C8Ynp-49" value="7.3 Create database backup and restore feature" style="rounded=0;whiteSpace=wrap;html=1;" vertex="1" parent="1">
          <mxGeometry x="1078" y="526" width="120" height="60" as="geometry" />
        </mxCell>
        <mxCell id="8G37RJXWzMMszH3C8Ynp-50" value="7.4 Final release to client" style="rounded=0;whiteSpace=wrap;html=1;" vertex="1" parent="1">
          <mxGeometry x="1078" y="631" width="120" height="60" as="geometry" />
        </mxCell>
        <mxCell id="8G37RJXWzMMszH3C8Ynp-51" value="8.1 Prepare User Manual" style="rounded=0;whiteSpace=wrap;html=1;" vertex="1" parent="1">
          <mxGeometry x="1288" y="320" width="120" height="60" as="geometry" />
        </mxCell>
        <mxCell id="8G37RJXWzMMszH3C8Ynp-52" value="&lt;br&gt;8.2 Prepare&lt;div&gt;&amp;nbsp;Technical Documentation&lt;br&gt;&lt;br&gt;&lt;/div&gt;" style="rounded=0;whiteSpace=wrap;html=1;" vertex="1" parent="1">
          <mxGeometry x="1288" y="420" width="120" height="60" as="geometry" />
        </mxCell>
        <mxCell id="8G37RJXWzMMszH3C8Ynp-53" value="8.3 Create&amp;nbsp;&lt;div&gt;Installation Guide&lt;/div&gt;" style="rounded=0;whiteSpace=wrap;html=1;" vertex="1" parent="1">
          <mxGeometry x="1288" y="525" width="120" height="60" as="geometry" />
        </mxCell>
        <mxCell id="8G37RJXWzMMszH3C8Ynp-54" value="&#xa;8.4 Write Maintenance Plan&#xa;&#xa;" style="rounded=0;whiteSpace=wrap;html=1;" vertex="1" parent="1">
          <mxGeometry x="1288" y="630" width="120" height="60" as="geometry" />
        </mxCell>
        <mxCell id="8G37RJXWzMMszH3C8Ynp-58" value="4.5 DashboardForm" style="rounded=0;whiteSpace=wrap;html=1;" vertex="1" parent="1">
          <mxGeometry x="460" y="730" width="120" height="60" as="geometry" />
        </mxCell>
        <mxCell id="8G37RJXWzMMszH3C8Ynp-59" value="4.6 ProfileForm" style="rounded=0;whiteSpace=wrap;html=1;" vertex="1" parent="1">
          <mxGeometry x="460" y="835" width="120" height="60" as="geometry" />
        </mxCell>
        <mxCell id="8G37RJXWzMMszH3C8Ynp-60" value="4.7 DietPlansForm" style="rounded=0;whiteSpace=wrap;html=1;" vertex="1" parent="1">
          <mxGeometry x="460" y="940" width="120" height="60" as="geometry" />
        </mxCell>
        <mxCell id="8G37RJXWzMMszH3C8Ynp-61" value="4.8 WorkoutPLansForm" style="rounded=0;whiteSpace=wrap;html=1;" vertex="1" parent="1">
          <mxGeometry x="460" y="1040" width="120" height="60" as="geometry" />
        </mxCell>
        <mxCell id="8G37RJXWzMMszH3C8Ynp-62" value="4.9 BMICalcualtorForm" style="rounded=0;whiteSpace=wrap;html=1;" vertex="1" parent="1">
          <mxGeometry x="460" y="1145" width="120" height="60" as="geometry" />
        </mxCell>
        <mxCell id="8G37RJXWzMMszH3C8Ynp-65" value="8.5 Future upgrade roadmap" style="rounded=0;whiteSpace=wrap;html=1;" vertex="1" parent="1">
          <mxGeometry x="1288" y="730" width="120" height="60" as="geometry" />
        </mxCell>
        <mxCell id="8G37RJXWzMMszH3C8Ynp-66" value="2.3.1 Use Case Diagram" style="rounded=0;whiteSpace=wrap;html=1;" vertex="1" parent="1">
          <mxGeometry x="120" y="620" width="120" height="60" as="geometry" />
        </mxCell>
        <mxCell id="8G37RJXWzMMszH3C8Ynp-67" value="2.3.2&amp;nbsp;&lt;div&gt;Class Diagram&lt;/div&gt;" style="rounded=0;whiteSpace=wrap;html=1;" vertex="1" parent="1">
          <mxGeometry x="120" y="710" width="120" height="60" as="geometry" />
        </mxCell>
        <mxCell id="8G37RJXWzMMszH3C8Ynp-68" value="2.3.3&amp;nbsp;Sequence Diagram" style="rounded=0;whiteSpace=wrap;html=1;" vertex="1" parent="1">
          <mxGeometry x="120" y="800" width="120" height="60" as="geometry" />
        </mxCell>
        <mxCell id="8G37RJXWzMMszH3C8Ynp-69" value="5.2.1 Workout Logic" style="rounded=0;whiteSpace=wrap;html=1;" vertex="1" parent="1">
          <mxGeometry x="700" y="521" width="120" height="60" as="geometry" />
        </mxCell>
        <mxCell id="8G37RJXWzMMszH3C8Ynp-70" value="5.2.2 Nutrition Logic" style="rounded=0;whiteSpace=wrap;html=1;" vertex="1" parent="1">
          <mxGeometry x="700" y="611" width="120" height="60" as="geometry" />
        </mxCell>
        <mxCell id="8G37RJXWzMMszH3C8Ynp-71" value="5.2.3 BMI Logic" style="rounded=0;whiteSpace=wrap;html=1;" vertex="1" parent="1">
          <mxGeometry x="700" y="701" width="120" height="60" as="geometry" />
        </mxCell>
        <mxCell id="8G37RJXWzMMszH3C8Ynp-72" value="5.2.4&lt;div&gt;&amp;nbsp;Other Features&lt;/div&gt;&lt;div&gt;&amp;nbsp;Logic&lt;/div&gt;" style="rounded=0;whiteSpace=wrap;html=1;" vertex="1" parent="1">
          <mxGeometry x="700" y="801" width="120" height="60" as="geometry" />
        </mxCell>
        <mxCell id="8G37RJXWzMMszH3C8Ynp-73" value="5.3.2&lt;div&gt;Data Encryption&lt;/div&gt;" style="rounded=0;whiteSpace=wrap;html=1;" vertex="1" parent="1">
          <mxGeometry x="710" y="1082" width="120" height="60" as="geometry" />
        </mxCell>
        <mxCell id="8G37RJXWzMMszH3C8Ynp-74" value="" style="endArrow=none;html=1;rounded=0;" edge="1" parent="1">
          <mxGeometry width="50" height="50" relative="1" as="geometry">
            <mxPoint x="-179" y="669" as="sourcePoint" />
            <mxPoint x="-179" y="259" as="targetPoint" />
          </mxGeometry>
        </mxCell>
        <mxCell id="8G37RJXWzMMszH3C8Ynp-75" value="" style="endArrow=none;html=1;rounded=0;" edge="1" parent="1">
          <mxGeometry width="50" height="50" relative="1" as="geometry">
            <mxPoint x="-179" y="349.17" as="sourcePoint" />
            <mxPoint x="-139" y="349.17" as="targetPoint" />
          </mxGeometry>
        </mxCell>
        <mxCell id="8G37RJXWzMMszH3C8Ynp-76" value="" style="endArrow=none;html=1;rounded=0;" edge="1" parent="1">
          <mxGeometry width="50" height="50" relative="1" as="geometry">
            <mxPoint x="-179" y="447" as="sourcePoint" />
            <mxPoint x="-139" y="447" as="targetPoint" />
          </mxGeometry>
        </mxCell>
        <mxCell id="8G37RJXWzMMszH3C8Ynp-77" value="" style="endArrow=none;html=1;rounded=0;" edge="1" parent="1">
          <mxGeometry width="50" height="50" relative="1" as="geometry">
            <mxPoint x="-180" y="550" as="sourcePoint" />
            <mxPoint x="-140" y="550" as="targetPoint" />
          </mxGeometry>
        </mxCell>
        <mxCell id="8G37RJXWzMMszH3C8Ynp-78" value="" style="endArrow=none;html=1;rounded=0;" edge="1" parent="1">
          <mxGeometry width="50" height="50" relative="1" as="geometry">
            <mxPoint x="-179" y="667" as="sourcePoint" />
            <mxPoint x="-139" y="667" as="targetPoint" />
          </mxGeometry>
        </mxCell>
        <mxCell id="8G37RJXWzMMszH3C8Ynp-85" value="" style="endArrow=none;html=1;rounded=0;" edge="1" parent="1">
          <mxGeometry width="50" height="50" relative="1" as="geometry">
            <mxPoint x="31" y="930" as="sourcePoint" />
            <mxPoint x="31" y="259" as="targetPoint" />
          </mxGeometry>
        </mxCell>
        <mxCell id="8G37RJXWzMMszH3C8Ynp-86" value="" style="endArrow=none;html=1;rounded=0;" edge="1" parent="1">
          <mxGeometry width="50" height="50" relative="1" as="geometry">
            <mxPoint x="31" y="349.17" as="sourcePoint" />
            <mxPoint x="71" y="349.17" as="targetPoint" />
          </mxGeometry>
        </mxCell>
        <mxCell id="8G37RJXWzMMszH3C8Ynp-87" value="" style="endArrow=none;html=1;rounded=0;" edge="1" parent="1">
          <mxGeometry width="50" height="50" relative="1" as="geometry">
            <mxPoint x="31" y="447" as="sourcePoint" />
            <mxPoint x="71" y="447" as="targetPoint" />
          </mxGeometry>
        </mxCell>
        <mxCell id="8G37RJXWzMMszH3C8Ynp-88" value="" style="endArrow=none;html=1;rounded=0;" edge="1" parent="1">
          <mxGeometry width="50" height="50" relative="1" as="geometry">
            <mxPoint x="30" y="550" as="sourcePoint" />
            <mxPoint x="70" y="550" as="targetPoint" />
          </mxGeometry>
        </mxCell>
        <mxCell id="8G37RJXWzMMszH3C8Ynp-90" value="" style="endArrow=none;html=1;rounded=0;" edge="1" parent="1">
          <mxGeometry width="50" height="50" relative="1" as="geometry">
            <mxPoint x="1039" y="666" as="sourcePoint" />
            <mxPoint x="1039" y="256" as="targetPoint" />
          </mxGeometry>
        </mxCell>
        <mxCell id="8G37RJXWzMMszH3C8Ynp-91" value="" style="endArrow=none;html=1;rounded=0;" edge="1" parent="1">
          <mxGeometry width="50" height="50" relative="1" as="geometry">
            <mxPoint x="1039" y="346.17" as="sourcePoint" />
            <mxPoint x="1079" y="346.17" as="targetPoint" />
          </mxGeometry>
        </mxCell>
        <mxCell id="8G37RJXWzMMszH3C8Ynp-92" value="" style="endArrow=none;html=1;rounded=0;" edge="1" parent="1">
          <mxGeometry width="50" height="50" relative="1" as="geometry">
            <mxPoint x="1039" y="444" as="sourcePoint" />
            <mxPoint x="1079" y="444" as="targetPoint" />
          </mxGeometry>
        </mxCell>
        <mxCell id="8G37RJXWzMMszH3C8Ynp-93" value="" style="endArrow=none;html=1;rounded=0;" edge="1" parent="1">
          <mxGeometry width="50" height="50" relative="1" as="geometry">
            <mxPoint x="1038" y="547" as="sourcePoint" />
            <mxPoint x="1078" y="547" as="targetPoint" />
          </mxGeometry>
        </mxCell>
        <mxCell id="8G37RJXWzMMszH3C8Ynp-94" value="" style="endArrow=none;html=1;rounded=0;" edge="1" parent="1">
          <mxGeometry width="50" height="50" relative="1" as="geometry">
            <mxPoint x="1039" y="664" as="sourcePoint" />
            <mxPoint x="1079" y="664" as="targetPoint" />
          </mxGeometry>
        </mxCell>
        <mxCell id="8G37RJXWzMMszH3C8Ynp-95" value="" style="endArrow=none;html=1;rounded=0;" edge="1" parent="1">
          <mxGeometry width="50" height="50" relative="1" as="geometry">
            <mxPoint x="1247" y="760" as="sourcePoint" />
            <mxPoint x="1247" y="258" as="targetPoint" />
          </mxGeometry>
        </mxCell>
        <mxCell id="8G37RJXWzMMszH3C8Ynp-96" value="" style="endArrow=none;html=1;rounded=0;" edge="1" parent="1">
          <mxGeometry width="50" height="50" relative="1" as="geometry">
            <mxPoint x="1247" y="348.17" as="sourcePoint" />
            <mxPoint x="1287" y="348.17" as="targetPoint" />
          </mxGeometry>
        </mxCell>
        <mxCell id="8G37RJXWzMMszH3C8Ynp-97" value="" style="endArrow=none;html=1;rounded=0;" edge="1" parent="1">
          <mxGeometry width="50" height="50" relative="1" as="geometry">
            <mxPoint x="1247" y="446" as="sourcePoint" />
            <mxPoint x="1287" y="446" as="targetPoint" />
          </mxGeometry>
        </mxCell>
        <mxCell id="8G37RJXWzMMszH3C8Ynp-98" value="" style="endArrow=none;html=1;rounded=0;" edge="1" parent="1">
          <mxGeometry width="50" height="50" relative="1" as="geometry">
            <mxPoint x="1246" y="549" as="sourcePoint" />
            <mxPoint x="1286" y="549" as="targetPoint" />
          </mxGeometry>
        </mxCell>
        <mxCell id="8G37RJXWzMMszH3C8Ynp-99" value="" style="endArrow=none;html=1;rounded=0;" edge="1" parent="1">
          <mxGeometry width="50" height="50" relative="1" as="geometry">
            <mxPoint x="1247" y="666" as="sourcePoint" />
            <mxPoint x="1287" y="666" as="targetPoint" />
          </mxGeometry>
        </mxCell>
        <mxCell id="8G37RJXWzMMszH3C8Ynp-101" value="" style="endArrow=none;html=1;rounded=0;" edge="1" parent="1">
          <mxGeometry width="50" height="50" relative="1" as="geometry">
            <mxPoint x="1247" y="756" as="sourcePoint" />
            <mxPoint x="1287" y="756" as="targetPoint" />
          </mxGeometry>
        </mxCell>
        <mxCell id="8G37RJXWzMMszH3C8Ynp-103" value="" style="endArrow=none;html=1;rounded=0;" edge="1" parent="1">
          <mxGeometry width="50" height="50" relative="1" as="geometry">
            <mxPoint x="842" y="547" as="sourcePoint" />
            <mxPoint x="843" y="256" as="targetPoint" />
          </mxGeometry>
        </mxCell>
        <mxCell id="8G37RJXWzMMszH3C8Ynp-104" value="" style="endArrow=none;html=1;rounded=0;" edge="1" parent="1">
          <mxGeometry width="50" height="50" relative="1" as="geometry">
            <mxPoint x="843" y="346.17" as="sourcePoint" />
            <mxPoint x="883" y="346.17" as="targetPoint" />
          </mxGeometry>
        </mxCell>
        <mxCell id="8G37RJXWzMMszH3C8Ynp-105" value="" style="endArrow=none;html=1;rounded=0;" edge="1" parent="1">
          <mxGeometry width="50" height="50" relative="1" as="geometry">
            <mxPoint x="843" y="444" as="sourcePoint" />
            <mxPoint x="883" y="444" as="targetPoint" />
          </mxGeometry>
        </mxCell>
        <mxCell id="8G37RJXWzMMszH3C8Ynp-106" value="" style="endArrow=none;html=1;rounded=0;" edge="1" parent="1">
          <mxGeometry width="50" height="50" relative="1" as="geometry">
            <mxPoint x="842" y="547" as="sourcePoint" />
            <mxPoint x="882" y="547" as="targetPoint" />
          </mxGeometry>
        </mxCell>
        <mxCell id="8G37RJXWzMMszH3C8Ynp-112" value="" style="endArrow=none;html=1;rounded=0;" edge="1" parent="1">
          <mxGeometry width="50" height="50" relative="1" as="geometry">
            <mxPoint x="670" y="840" as="sourcePoint" />
            <mxPoint x="670" y="481" as="targetPoint" />
          </mxGeometry>
        </mxCell>
        <mxCell id="8G37RJXWzMMszH3C8Ynp-113" value="" style="endArrow=none;html=1;rounded=0;" edge="1" parent="1">
          <mxGeometry width="50" height="50" relative="1" as="geometry">
            <mxPoint x="670" y="839" as="sourcePoint" />
            <mxPoint x="702" y="839" as="targetPoint" />
          </mxGeometry>
        </mxCell>
        <mxCell id="8G37RJXWzMMszH3C8Ynp-114" value="" style="endArrow=none;html=1;rounded=0;" edge="1" parent="1">
          <mxGeometry width="50" height="50" relative="1" as="geometry">
            <mxPoint x="669" y="729" as="sourcePoint" />
            <mxPoint x="701" y="729" as="targetPoint" />
          </mxGeometry>
        </mxCell>
        <mxCell id="8G37RJXWzMMszH3C8Ynp-115" value="" style="endArrow=none;html=1;rounded=0;" edge="1" parent="1">
          <mxGeometry width="50" height="50" relative="1" as="geometry">
            <mxPoint x="669" y="641" as="sourcePoint" />
            <mxPoint x="701" y="641" as="targetPoint" />
          </mxGeometry>
        </mxCell>
        <mxCell id="8G37RJXWzMMszH3C8Ynp-117" value="" style="endArrow=none;html=1;rounded=0;" edge="1" parent="1">
          <mxGeometry width="50" height="50" relative="1" as="geometry">
            <mxPoint x="669" y="552" as="sourcePoint" />
            <mxPoint x="701" y="552" as="targetPoint" />
          </mxGeometry>
        </mxCell>
        <mxCell id="8G37RJXWzMMszH3C8Ynp-118" value="" style="endArrow=none;html=1;rounded=0;" edge="1" parent="1">
          <mxGeometry width="50" height="50" relative="1" as="geometry">
            <mxPoint x="87" y="830" as="sourcePoint" />
            <mxPoint x="89" y="584" as="targetPoint" />
          </mxGeometry>
        </mxCell>
        <mxCell id="8G37RJXWzMMszH3C8Ynp-119" value="" style="endArrow=none;html=1;rounded=0;" edge="1" parent="1">
          <mxGeometry width="50" height="50" relative="1" as="geometry">
            <mxPoint x="30" y="929" as="sourcePoint" />
            <mxPoint x="70" y="929" as="targetPoint" />
          </mxGeometry>
        </mxCell>
        <mxCell id="8G37RJXWzMMszH3C8Ynp-120" value="" style="endArrow=none;html=1;rounded=0;" edge="1" parent="1">
          <mxGeometry width="50" height="50" relative="1" as="geometry">
            <mxPoint x="88" y="649" as="sourcePoint" />
            <mxPoint x="120" y="649" as="targetPoint" />
          </mxGeometry>
        </mxCell>
        <mxCell id="8G37RJXWzMMszH3C8Ynp-121" value="" style="endArrow=none;html=1;rounded=0;" edge="1" parent="1">
          <mxGeometry width="50" height="50" relative="1" as="geometry">
            <mxPoint x="89" y="740" as="sourcePoint" />
            <mxPoint x="121" y="740" as="targetPoint" />
          </mxGeometry>
        </mxCell>
        <mxCell id="8G37RJXWzMMszH3C8Ynp-122" value="" style="endArrow=none;html=1;rounded=0;" edge="1" parent="1">
          <mxGeometry width="50" height="50" relative="1" as="geometry">
            <mxPoint x="88" y="829" as="sourcePoint" />
            <mxPoint x="120" y="829" as="targetPoint" />
          </mxGeometry>
        </mxCell>
        <mxCell id="8G37RJXWzMMszH3C8Ynp-125" value="" style="endArrow=none;html=1;rounded=0;" edge="1" parent="1">
          <mxGeometry width="50" height="50" relative="1" as="geometry">
            <mxPoint x="230" y="550" as="sourcePoint" />
            <mxPoint x="231" y="259" as="targetPoint" />
          </mxGeometry>
        </mxCell>
        <mxCell id="8G37RJXWzMMszH3C8Ynp-126" value="" style="endArrow=none;html=1;rounded=0;" edge="1" parent="1">
          <mxGeometry width="50" height="50" relative="1" as="geometry">
            <mxPoint x="231" y="349.17" as="sourcePoint" />
            <mxPoint x="271" y="349.17" as="targetPoint" />
          </mxGeometry>
        </mxCell>
        <mxCell id="8G37RJXWzMMszH3C8Ynp-127" value="" style="endArrow=none;html=1;rounded=0;" edge="1" parent="1">
          <mxGeometry width="50" height="50" relative="1" as="geometry">
            <mxPoint x="231" y="447" as="sourcePoint" />
            <mxPoint x="271" y="447" as="targetPoint" />
          </mxGeometry>
        </mxCell>
        <mxCell id="8G37RJXWzMMszH3C8Ynp-128" value="" style="endArrow=none;html=1;rounded=0;" edge="1" parent="1">
          <mxGeometry width="50" height="50" relative="1" as="geometry">
            <mxPoint x="230" y="550" as="sourcePoint" />
            <mxPoint x="270" y="550" as="targetPoint" />
          </mxGeometry>
        </mxCell>
        <mxCell id="8G37RJXWzMMszH3C8Ynp-129" value="" style="endArrow=none;html=1;rounded=0;" edge="1" parent="1">
          <mxGeometry width="50" height="50" relative="1" as="geometry">
            <mxPoint x="420" y="1180" as="sourcePoint" />
            <mxPoint x="420" y="260" as="targetPoint" />
          </mxGeometry>
        </mxCell>
        <mxCell id="8G37RJXWzMMszH3C8Ynp-130" value="" style="endArrow=none;html=1;rounded=0;" edge="1" parent="1">
          <mxGeometry width="50" height="50" relative="1" as="geometry">
            <mxPoint x="420" y="350.17" as="sourcePoint" />
            <mxPoint x="460" y="350.17" as="targetPoint" />
          </mxGeometry>
        </mxCell>
        <mxCell id="8G37RJXWzMMszH3C8Ynp-131" value="" style="endArrow=none;html=1;rounded=0;" edge="1" parent="1">
          <mxGeometry width="50" height="50" relative="1" as="geometry">
            <mxPoint x="420" y="448" as="sourcePoint" />
            <mxPoint x="460" y="448" as="targetPoint" />
          </mxGeometry>
        </mxCell>
        <mxCell id="8G37RJXWzMMszH3C8Ynp-132" value="" style="endArrow=none;html=1;rounded=0;" edge="1" parent="1">
          <mxGeometry width="50" height="50" relative="1" as="geometry">
            <mxPoint x="419" y="551" as="sourcePoint" />
            <mxPoint x="459" y="551" as="targetPoint" />
          </mxGeometry>
        </mxCell>
        <mxCell id="8G37RJXWzMMszH3C8Ynp-133" value="" style="endArrow=none;html=1;rounded=0;" edge="1" parent="1">
          <mxGeometry width="50" height="50" relative="1" as="geometry">
            <mxPoint x="420" y="661" as="sourcePoint" />
            <mxPoint x="460" y="661" as="targetPoint" />
          </mxGeometry>
        </mxCell>
        <mxCell id="8G37RJXWzMMszH3C8Ynp-134" value="" style="endArrow=none;html=1;rounded=0;" edge="1" parent="1">
          <mxGeometry width="50" height="50" relative="1" as="geometry">
            <mxPoint x="420" y="758" as="sourcePoint" />
            <mxPoint x="460" y="758" as="targetPoint" />
          </mxGeometry>
        </mxCell>
        <mxCell id="8G37RJXWzMMszH3C8Ynp-135" value="" style="endArrow=none;html=1;rounded=0;" edge="1" parent="1">
          <mxGeometry width="50" height="50" relative="1" as="geometry">
            <mxPoint x="420" y="864" as="sourcePoint" />
            <mxPoint x="460" y="864" as="targetPoint" />
          </mxGeometry>
        </mxCell>
        <mxCell id="8G37RJXWzMMszH3C8Ynp-136" value="" style="endArrow=none;html=1;rounded=0;" edge="1" parent="1">
          <mxGeometry width="50" height="50" relative="1" as="geometry">
            <mxPoint x="420" y="966" as="sourcePoint" />
            <mxPoint x="460" y="966" as="targetPoint" />
          </mxGeometry>
        </mxCell>
        <mxCell id="8G37RJXWzMMszH3C8Ynp-137" value="" style="endArrow=none;html=1;rounded=0;" edge="1" parent="1">
          <mxGeometry width="50" height="50" relative="1" as="geometry">
            <mxPoint x="421" y="1070" as="sourcePoint" />
            <mxPoint x="461" y="1070" as="targetPoint" />
          </mxGeometry>
        </mxCell>
        <mxCell id="8G37RJXWzMMszH3C8Ynp-138" value="" style="endArrow=none;html=1;rounded=0;" edge="1" parent="1">
          <mxGeometry width="50" height="50" relative="1" as="geometry">
            <mxPoint x="419" y="1179" as="sourcePoint" />
            <mxPoint x="459" y="1179" as="targetPoint" />
          </mxGeometry>
        </mxCell>
        <mxCell id="8G37RJXWzMMszH3C8Ynp-139" value="" style="endArrow=none;html=1;rounded=0;" edge="1" parent="1">
          <mxGeometry width="50" height="50" relative="1" as="geometry">
            <mxPoint x="620" y="930" as="sourcePoint" />
            <mxPoint x="620" y="257" as="targetPoint" />
          </mxGeometry>
        </mxCell>
        <mxCell id="8G37RJXWzMMszH3C8Ynp-140" value="" style="endArrow=none;html=1;rounded=0;" edge="1" parent="1">
          <mxGeometry width="50" height="50" relative="1" as="geometry">
            <mxPoint x="620" y="347.17" as="sourcePoint" />
            <mxPoint x="660" y="347.17" as="targetPoint" />
          </mxGeometry>
        </mxCell>
        <mxCell id="8G37RJXWzMMszH3C8Ynp-141" value="" style="endArrow=none;html=1;rounded=0;" edge="1" parent="1">
          <mxGeometry width="50" height="50" relative="1" as="geometry">
            <mxPoint x="620" y="445" as="sourcePoint" />
            <mxPoint x="660" y="445" as="targetPoint" />
          </mxGeometry>
        </mxCell>
        <mxCell id="8G37RJXWzMMszH3C8Ynp-142" value="" style="endArrow=none;html=1;rounded=0;" edge="1" parent="1">
          <mxGeometry width="50" height="50" relative="1" as="geometry">
            <mxPoint x="620" y="930" as="sourcePoint" />
            <mxPoint x="660" y="930" as="targetPoint" />
          </mxGeometry>
        </mxCell>
        <mxCell id="8G37RJXWzMMszH3C8Ynp-144" value="" style="endArrow=none;html=1;rounded=0;" edge="1" parent="1">
          <mxGeometry width="50" height="50" relative="1" as="geometry">
            <mxPoint x="676" y="1112" as="sourcePoint" />
            <mxPoint x="676" y="961" as="targetPoint" />
          </mxGeometry>
        </mxCell>
        <mxCell id="8G37RJXWzMMszH3C8Ynp-145" value="" style="endArrow=none;html=1;rounded=0;" edge="1" parent="1">
          <mxGeometry width="50" height="50" relative="1" as="geometry">
            <mxPoint x="677" y="1113" as="sourcePoint" />
            <mxPoint x="709" y="1113" as="targetPoint" />
          </mxGeometry>
        </mxCell>
        <mxCell id="8G37RJXWzMMszH3C8Ynp-146" value="" style="endArrow=none;html=1;rounded=0;" edge="1" parent="1">
          <mxGeometry width="50" height="50" relative="1" as="geometry">
            <mxPoint x="675" y="1021.5" as="sourcePoint" />
            <mxPoint x="707" y="1021.5" as="targetPoint" />
          </mxGeometry>
        </mxCell>
        <mxCell id="8G37RJXWzMMszH3C8Ynp-147" value="" style="endArrow=none;html=1;rounded=0;entryX=0.5;entryY=1;entryDx=0;entryDy=0;" edge="1" parent="1">
          <mxGeometry width="50" height="50" relative="1" as="geometry">
            <mxPoint x="-243" y="430" as="sourcePoint" />
            <mxPoint x="-243" y="390" as="targetPoint" />
          </mxGeometry>
        </mxCell>
        <mxCell id="8G37RJXWzMMszH3C8Ynp-148" value="" style="endArrow=none;html=1;rounded=0;entryX=0.5;entryY=1;entryDx=0;entryDy=0;" edge="1" parent="1">
          <mxGeometry width="50" height="50" relative="1" as="geometry">
            <mxPoint x="1430" y="440" as="sourcePoint" />
            <mxPoint x="1430" y="400" as="targetPoint" />
          </mxGeometry>
        </mxCell>
        <mxCell id="8G37RJXWzMMszH3C8Ynp-149" value="" style="endArrow=none;html=1;rounded=0;" edge="1" parent="1">
          <mxGeometry width="50" height="50" relative="1" as="geometry">
            <mxPoint x="570" y="21" as="sourcePoint" />
            <mxPoint x="610" y="21" as="targetPoint" />
          </mxGeometry>
        </mxCell>
        <mxCell id="8G37RJXWzMMszH3C8Ynp-150" value="" style="endArrow=none;html=1;rounded=0;" edge="1" parent="1">
          <mxGeometry width="50" height="50" relative="1" as="geometry">
            <mxPoint x="520" y="1230" as="sourcePoint" />
            <mxPoint x="560" y="1230" as="targetPoint" />
          </mxGeometry>
        </mxCell>
      </root>
    </mxGraphModel>
  </diagram>
</mxfile>
